<?xml version="1.0" encoding="utf-8"?>
<!-- Generator: Adobe Illustrator 16.0.0, SVG Export Plug-In . SVG Version: 6.00 Build 0)  -->
<!DOCTYPE svg PUBLIC "-//W3C//DTD SVG 1.1//EN" "http://www.w3.org/Graphics/SVG/1.1/DTD/svg11.dtd">
<svg version="1.1" id="Layer_1" xmlns="http://www.w3.org/2000/svg" xmlns:xlink="http://www.w3.org/1999/xlink" x="0px" y="0px"
	 width="2038.111px" height="782.362px" viewBox="0 0 2038.111 782.362" enable-background="new 0 0 2038.111 782.362"
	 xml:space="preserve">
<path fill="#FFFFFF" d="M1871.125,771.891V14.855V0.011c-31.093,0-76.406,0.016-76.406,0.016V782.33h10.887h232.554V678.466h-25.161
	l0.026,9.753c0,57.373-47.572,86.941-47.572,86.941h-94.416L1871.125,771.891z"/>
<path fill="#FFFFFF" d="M244.927,111.281c-0.016-21.181-4.35-38.119-13.621-53.307c-12.521-20.517-32.18-36.24-58.421-46.696
	C154.072,3.763,124.529,0.103,98.937,0.041C76.672-0.004-0.05,0.026-0.05,0.026V782.33c0,0,76.722,0.031,98.987-0.019
	c25.592-0.058,55.135-3.729,73.947-11.217c26.241-10.473,45.901-26.187,58.421-46.721c9.271-15.181,13.605-32.118,13.621-53.292
	C244.941,573.944,244.941,208.404,244.927,111.281 M76.343,14.847c0,0,83.424-4.097,92.49,15.609
	c5.648,12.276,5.319,64.528,5.319,77.332v566.794c0,12.781,0.329,65.047-5.319,77.309c-9.066,19.709-92.49,15.611-92.49,15.611
	V14.847z"/>
<path fill="#FFFFFF" d="M686.882,67.987c-7.361-21.762-19.598-38.226-37.446-50.357c-15.074-10.242-33.029-16.412-54.913-18.85
	c-7.973-0.909-15.83-1.298-23.581-1.284c-7.744-0.014-15.602,0.375-23.574,1.284c-21.885,2.438-39.84,8.608-54.914,18.85
	c-17.848,12.131-30.108,28.595-37.446,50.357c-4.479,13.354-6.558,27.991-6.558,46.039v554.289c0,18.055,2.079,32.701,6.558,46.047
	c7.338,21.752,19.598,38.235,37.446,50.357c15.073,10.239,33.029,16.404,54.914,18.863c7.972,0.904,15.83,1.285,23.574,1.285
	c7.751,0,15.608-0.381,23.581-1.285c21.884-2.459,39.839-8.624,54.913-18.863c17.849-12.122,30.085-28.605,37.446-50.357
	c4.48-13.346,6.559-27.992,6.543-46.047V114.025C693.44,95.978,691.362,81.34,686.882,67.987 M618.517,344.508v92.887v246.573
	c0,57.373-47.575,86.633-47.575,86.633s-47.567-29.26-47.567-86.633V437.396v-92.887V97.935c0-57.389,47.567-86.948,47.567-86.948
	s47.575,29.559,47.575,86.948V344.508z"/>
<path fill="#FFFFFF" d="M1590.417,106.816c0-24.245-5.291-43.439-16.663-60.393c-13.057-19.422-31.8-32.875-55.647-39.9
	c-25.317-7.5-53.444-8.913-83.5-4.151c-38.708,6.077-65.493,24.674-79.589,55.226c-6.544,14.172-9.6,29.934-9.6,49.562v675.568
	h74.939V92.462c0-53.002,49.774-80.305,49.774-80.305s45.436,28.397,45.436,81.406l-0.121,688.584c31.857,0.031,75.032,0,75.032,0
	L1590.417,106.816z"/>
<rect x="1420.449" y="383.347" fill="#FFFFFF" width="94.998" height="15.661"/>
<path fill="#FFFFFF" d="M1020.273,13.464c0,0,47.555,29.558,47.555,86.948h73.317v-6.406c-2.321-16.152-7.216-29.934-14.829-42.316
	c-12.964-21.066-31.675-35.627-55.521-43.31c-25.408-8.157-53.653-9.693-83.879-4.526c-38.792,6.62-65.59,26.876-79.648,60.173
	c-6.481,15.371-9.516,32.439-9.516,53.666c-0.013,102.68-0.031,187.976-0.031,273.487c0,85.504,0.019,170.809,0.031,273.479
	c0,21.234,3.035,38.279,9.516,53.659c14.058,33.311,40.857,53.57,79.648,60.172c30.226,5.166,58.471,3.637,83.879-4.51
	c23.847-7.688,42.558-22.258,55.521-43.327c7.613-12.38,12.508-26.155,14.829-42.298v-6.406V399.008v-5.351v-10.311h-120.872v15.661
	h47.555v282.943c0,57.374-47.555,86.942-47.555,86.942s-47.591-29.568-47.591-86.942v-8.576V493.93v-54.072v-4.479V346.97v-4.479
	v-54.072V108.973v-8.561C972.682,43.022,1020.273,13.464,1020.273,13.464"/>
</svg>
