<?xml version="1.0" encoding="utf-8"?>
<!-- Generator: Adobe Illustrator 16.0.0, SVG Export Plug-In . SVG Version: 6.00 Build 0)  -->
<!DOCTYPE svg PUBLIC "-//W3C//DTD SVG 1.1//EN" "http://www.w3.org/Graphics/SVG/1.1/DTD/svg11.dtd">
<svg version="1.1" id="Layer_1" xmlns="http://www.w3.org/2000/svg" xmlns:xlink="http://www.w3.org/1999/xlink" x="0px" y="0px"
	 width="172.336px" height="106.952px" viewBox="0 0 172.336 106.952" enable-background="new 0 0 172.336 106.952"
	 xml:space="preserve">
<g>
	<defs>
		<rect id="SVGID_1_" width="172.336" height="106.952"/>
	</defs>
	<clipPath id="SVGID_2_">
		<use xlink:href="#SVGID_1_"  overflow="visible"/>
	</clipPath>
	<path clip-path="url(#SVGID_2_)" fill="#FFFFFF" d="M140.598,77.796V29.437v-0.948c-1.986,0-4.88,0.001-4.88,0.001v49.973h0.694
		h14.855v-6.635h-1.607l0.002,0.623c0,3.665-3.038,5.554-3.038,5.554h-6.031L140.598,77.796z"/>
	<path clip-path="url(#SVGID_2_)" fill="#FFFFFF" d="M36.717,35.597c-0.001-1.353-0.278-2.435-0.87-3.405
		c-0.8-1.311-2.056-2.315-3.732-2.983c-1.202-0.48-3.089-0.714-4.724-0.718c-1.422-0.003-6.323-0.001-6.323-0.001v49.973
		c0,0,4.901,0.002,6.323-0.001c1.635-0.004,3.522-0.238,4.724-0.717c1.676-0.669,2.932-1.673,3.732-2.984
		c0.592-0.97,0.869-2.052,0.87-3.404C36.718,65.151,36.718,41.801,36.717,35.597 M25.948,29.437c0,0,5.329-0.262,5.908,0.997
		c0.361,0.784,0.34,4.122,0.34,4.94V71.58c0,0.816,0.021,4.155-0.34,4.938c-0.579,1.259-5.908,0.997-5.908,0.997V29.437z"/>
	<path clip-path="url(#SVGID_2_)" fill="#FFFFFF" d="M64.949,32.831c-0.47-1.39-1.252-2.442-2.392-3.217
		c-0.963-0.654-2.11-1.048-3.508-1.204c-0.509-0.058-1.011-0.083-1.506-0.082c-0.495-0.001-0.997,0.024-1.506,0.082
		c-1.398,0.156-2.545,0.55-3.508,1.204c-1.14,0.775-1.923,1.827-2.392,3.217c-0.286,0.853-0.419,1.788-0.419,2.941V71.18
		c0,1.153,0.133,2.089,0.419,2.941c0.469,1.39,1.252,2.442,2.392,3.217c0.963,0.654,2.11,1.048,3.508,1.205
		c0.509,0.058,1.011,0.082,1.506,0.082c0.495,0,0.997-0.024,1.506-0.082c1.398-0.157,2.545-0.551,3.508-1.205
		c1.14-0.774,1.922-1.827,2.392-3.217c0.286-0.853,0.419-1.788,0.418-2.941V35.772C65.368,34.619,65.235,33.684,64.949,32.831
		 M60.582,50.495v5.934V72.18c0,3.665-3.039,5.534-3.039,5.534s-3.039-1.869-3.039-5.534V56.429v-5.934V34.744
		c0-3.666,3.039-5.554,3.039-5.554s3.039,1.888,3.039,5.554V50.495z"/>
	<path clip-path="url(#SVGID_2_)" fill="#FFFFFF" d="M122.667,35.312c0-1.549-0.338-2.775-1.065-3.858
		c-0.833-1.241-2.031-2.1-3.555-2.549c-1.617-0.479-3.414-0.569-5.334-0.265c-2.473,0.388-4.183,1.576-5.083,3.528
		c-0.419,0.905-0.614,1.912-0.614,3.166v43.155h4.788V34.395c0-3.386,3.179-5.13,3.179-5.13s2.903,1.814,2.903,5.2l-0.009,43.986
		c2.035,0.002,4.793,0,4.793,0L122.667,35.312z"/>
	<rect x="111.809" y="52.976" clip-path="url(#SVGID_2_)" fill="#FFFFFF" width="6.068" height="1"/>
	<path clip-path="url(#SVGID_2_)" fill="#FFFFFF" d="M86.246,29.348c0,0,3.038,1.888,3.038,5.554h4.684v-0.409
		c-0.149-1.032-0.461-1.912-0.947-2.703c-0.829-1.346-2.023-2.276-3.548-2.767c-1.623-0.521-3.427-0.619-5.357-0.289
		c-2.478,0.423-4.19,1.717-5.088,3.844c-0.414,0.982-0.608,2.072-0.608,3.428c-0.001,6.559-0.002,12.008-0.002,17.47
		c0,5.462,0.001,10.912,0.002,17.47c0,1.356,0.194,2.445,0.608,3.428c0.898,2.128,2.61,3.422,5.088,3.844
		c1.931,0.33,3.734,0.232,5.357-0.288c1.524-0.491,2.719-1.422,3.548-2.768c0.486-0.791,0.798-1.671,0.947-2.702v-0.409V53.976
		v-0.342v-0.658h-7.722v1h3.038v18.075c0,3.665-3.038,5.554-3.038,5.554s-3.04-1.889-3.04-5.554v-0.548V60.04v-3.454V56.3v-5.647
		v-0.286v-3.454V35.449v-0.547C83.206,31.236,86.246,29.348,86.246,29.348"/>
</g>
</svg>
